<svg width="1440" height="730" viewBox="0 0 1440 730" fill="none" xmlns="http://www.w3.org/2000/svg">
<mask id="mask0_8_176" style="mask-type:alpha" maskUnits="userSpaceOnUse" x="0" y="0" width="1440" height="730">
<rect width="1440" height="730" fill="white"/>
</mask>
<g mask="url(#mask0_8_176)">
<path d="M111.001 -78.6626C112.763 -68.4953 113.96 -58.1385 114.557 -47.6245L112.061 -47.4827C112.352 -42.3585 112.5 -37.1963 112.5 -32C112.5 -26.8037 112.352 -21.6416 112.061 -16.5174L114.557 -16.3755C113.96 -5.8616 112.763 4.49524 111.001 14.6626L108.537 14.2355C106.761 24.4854 104.403 34.5407 101.499 44.3679L103.896 45.0763C100.928 55.12 97.395 64.9276 93.3323 74.4635L91.0323 73.4837C86.9726 83.0127 82.3793 92.2684 77.2889 101.215L79.4618 102.451C74.301 111.521 68.6341 120.276 62.4988 128.678L60.4798 127.204C54.3899 135.544 47.834 143.534 40.8494 151.137L42.6905 152.829C35.6494 160.493 28.1768 167.768 20.3103 174.617L18.6688 172.731C10.8975 179.497 2.73819 185.842 -5.77216 191.731L-4.34961 193.786C-12.8894 199.696 -21.7794 205.149 -30.983 210.111L-32.1695 207.911C-41.2155 212.788 -50.5672 217.186 -60.1892 221.07L-59.2534 223.388C-68.8526 227.263 -78.7185 230.631 -88.8164 233.458L-89.4904 231.051C-99.3541 233.812 -109.441 236.053 -119.72 237.741L-119.315 240.208C-129.493 241.88 -139.858 243.014 -150.376 243.581L-150.51 241.084C-155.637 241.36 -160.802 241.5 -166 241.5C-171.198 241.5 -176.363 241.36 -181.49 241.084L-181.624 243.581C-192.142 243.014 -202.507 241.88 -212.685 240.208L-212.28 237.741C-222.558 236.053 -232.646 233.812 -242.51 231.051L-243.184 233.458C-253.282 230.631 -263.147 227.263 -272.747 223.388L-271.811 221.07C-281.433 217.186 -290.785 212.788 -299.831 207.911L-301.017 210.111C-310.221 205.149 -319.111 199.696 -327.65 193.786L-326.228 191.731C-334.738 185.842 -342.897 179.497 -350.669 172.731L-352.31 174.617C-360.177 167.768 -367.649 160.493 -374.691 152.829L-372.849 151.137C-379.834 143.534 -386.39 135.544 -392.48 127.204L-394.499 128.678C-400.634 120.276 -406.301 111.521 -411.462 102.451L-409.289 101.215C-414.379 92.2684 -418.973 83.0127 -423.032 73.4837L-425.332 74.4636C-429.395 64.9276 -432.928 55.1201 -435.896 45.0764L-433.499 44.3679C-436.403 34.5408 -438.761 24.4854 -440.537 14.2356L-443.001 14.6626C-444.763 4.4953 -445.96 -5.86151 -446.557 -16.3755L-444.061 -16.5173C-444.352 -21.6415 -444.5 -26.8037 -444.5 -32C-444.5 -37.1963 -444.352 -42.3584 -444.061 -47.4826L-446.557 -47.6245C-445.96 -58.1384 -444.763 -68.4952 -443.001 -78.6626L-440.538 -78.2355C-438.761 -88.4854 -436.403 -98.5407 -433.499 -108.368L-435.896 -109.076C-432.928 -119.12 -429.395 -128.928 -425.332 -138.464L-423.032 -137.484C-418.973 -147.013 -414.379 -156.268 -409.289 -165.215L-411.462 -166.451C-406.301 -175.521 -400.634 -184.276 -394.499 -192.678L-392.48 -191.204C-386.39 -199.544 -379.834 -207.534 -372.849 -215.137L-374.691 -216.829C-367.649 -224.493 -360.177 -231.768 -352.31 -238.617L-350.669 -236.731C-342.897 -243.497 -334.738 -249.842 -326.228 -255.731L-327.65 -257.787C-319.111 -263.696 -310.221 -269.149 -301.017 -274.111L-299.831 -271.911C-290.785 -276.788 -281.433 -281.186 -271.811 -285.07L-272.747 -287.388C-263.147 -291.263 -253.282 -294.631 -243.184 -297.458L-242.51 -295.051C-232.646 -297.812 -222.559 -300.053 -212.28 -301.741L-212.685 -304.208C-202.507 -305.88 -192.143 -307.014 -181.624 -307.581L-181.49 -305.084C-176.363 -305.36 -171.198 -305.5 -166 -305.5C-160.802 -305.5 -155.637 -305.36 -150.51 -305.084L-150.376 -307.581C-139.858 -307.014 -129.493 -305.88 -119.315 -304.208L-119.72 -301.741C-109.441 -300.053 -99.3541 -297.812 -89.4904 -295.051L-88.8164 -297.458C-78.7185 -294.631 -68.8526 -291.263 -59.2534 -287.388L-60.1892 -285.07C-50.5672 -281.186 -41.2155 -276.788 -32.1695 -271.911L-30.9831 -274.111C-21.7794 -269.149 -12.8894 -263.696 -4.34961 -257.786L-5.77216 -255.731C2.73819 -249.842 10.8975 -243.497 18.6688 -236.731L20.3103 -238.617C28.1768 -231.768 35.6494 -224.493 42.6905 -216.829L40.8494 -215.137C47.834 -207.534 54.3899 -199.544 60.4798 -191.204L62.4988 -192.678C68.6341 -184.276 74.301 -175.521 79.4618 -166.451L77.2889 -165.215C82.3793 -156.268 86.9726 -147.013 91.0323 -137.484L93.3323 -138.464C97.395 -128.928 100.928 -119.12 103.896 -109.076L101.499 -108.368C104.403 -98.5408 106.76 -88.4855 108.537 -78.2356L111.001 -78.6626Z" stroke="#596664" stroke-opacity="0.1" stroke-width="5" stroke-dasharray="30 30"/>
<path d="M291.001 777.337C292.763 787.505 293.96 797.862 294.557 808.375L292.061 808.517C292.352 813.642 292.5 818.804 292.5 824C292.5 829.196 292.352 834.358 292.061 839.483L294.557 839.624C293.96 850.138 292.763 860.495 291.001 870.663L288.537 870.236C286.761 880.485 284.403 890.541 281.499 900.368L283.896 901.076C280.928 911.12 277.395 920.928 273.332 930.464L271.032 929.484C266.973 939.013 262.379 948.268 257.289 957.215L259.462 958.451C254.301 967.521 248.634 976.276 242.499 984.678L240.48 983.204C234.39 991.544 227.834 999.534 220.849 1007.14L222.691 1008.83C215.649 1016.49 208.177 1023.77 200.31 1030.62L198.669 1028.73C190.897 1035.5 182.738 1041.84 174.228 1047.73L175.65 1049.79C167.111 1055.7 158.221 1061.15 149.017 1066.11L147.831 1063.91C138.785 1068.79 129.433 1073.19 119.811 1077.07L120.747 1079.39C111.147 1083.26 101.282 1086.63 91.1836 1089.46L90.5096 1087.05C80.6459 1089.81 70.5585 1092.05 60.2801 1093.74L60.6853 1096.21C50.5066 1097.88 40.1425 1099.01 29.6244 1099.58L29.49 1097.08C24.3626 1097.36 19.1981 1097.5 14 1097.5C8.80194 1097.5 3.63739 1097.36 -1.48996 1097.08L-1.62433 1099.58C-12.1425 1099.01 -22.5065 1097.88 -32.6853 1096.21L-32.2801 1093.74C-42.5585 1092.05 -52.6459 1089.81 -62.5096 1087.05L-63.1836 1089.46C-73.2815 1086.63 -83.1474 1083.26 -92.7466 1079.39L-91.8108 1077.07C-101.433 1073.19 -110.785 1068.79 -119.831 1063.91L-121.017 1066.11C-130.221 1061.15 -139.111 1055.7 -147.65 1049.79L-146.228 1047.73C-154.738 1041.84 -162.897 1035.5 -170.669 1028.73L-172.31 1030.62C-180.177 1023.77 -187.649 1016.49 -194.691 1008.83L-192.849 1007.14C-199.834 999.534 -206.39 991.544 -212.48 983.204L-214.499 984.678C-220.634 976.276 -226.301 967.521 -231.462 958.451L-229.289 957.215C-234.379 948.268 -238.973 939.013 -243.032 929.484L-245.332 930.464C-249.395 920.928 -252.928 911.12 -255.896 901.076L-253.499 900.368C-256.403 890.541 -258.761 880.485 -260.537 870.236L-263.001 870.663C-264.763 860.495 -265.96 850.138 -266.557 839.625L-264.061 839.483C-264.352 834.358 -264.5 829.196 -264.5 824C-264.5 818.804 -264.352 813.642 -264.061 808.517L-266.557 808.376C-265.96 797.862 -264.763 787.505 -263.001 777.337L-260.538 777.764C-258.761 767.515 -256.403 757.459 -253.499 747.632L-255.896 746.924C-252.928 736.88 -249.395 727.072 -245.332 717.536L-243.032 718.516C-238.973 708.987 -234.379 699.732 -229.289 690.785L-231.462 689.549C-226.301 680.479 -220.634 671.724 -214.499 663.322L-212.48 664.796C-206.39 656.456 -199.834 648.466 -192.849 640.863L-194.691 639.171C-187.649 631.507 -180.177 624.232 -172.31 617.383L-170.669 619.269C-162.897 612.503 -154.738 606.158 -146.228 600.269L-147.65 598.213C-139.111 592.304 -130.221 586.851 -121.017 581.889L-119.831 584.089C-110.785 579.212 -101.433 574.814 -91.8108 570.93L-92.7466 568.612C-83.1474 564.737 -73.2815 561.369 -63.1836 558.542L-62.5096 560.949C-52.6459 558.188 -42.5585 555.947 -32.2801 554.259L-32.6853 551.792C-22.5066 550.12 -12.1425 548.986 -1.62439 548.419L-1.48999 550.916C3.63739 550.64 8.80194 550.5 14 550.5C19.1981 550.5 24.3626 550.64 29.49 550.916L29.6244 548.419C40.1425 548.986 50.5065 550.12 60.6853 551.792L60.2801 554.259C70.5585 555.947 80.6459 558.188 90.5096 560.949L91.1836 558.542C101.282 561.369 111.147 564.737 120.747 568.612L119.811 570.93C129.433 574.814 138.785 579.212 147.831 584.089L149.017 581.889C158.221 586.851 167.111 592.304 175.65 598.214L174.228 600.269C182.738 606.158 190.897 612.503 198.669 619.269L200.31 617.383C208.177 624.232 215.649 631.507 222.691 639.171L220.849 640.863C227.834 648.466 234.39 656.456 240.48 664.796L242.499 663.322C248.634 671.724 254.301 680.479 259.462 689.549L257.289 690.785C262.379 699.732 266.973 708.987 271.032 718.516L273.332 717.536C277.395 727.072 280.928 736.88 283.896 746.924L281.499 747.632C284.403 757.459 286.76 767.515 288.537 777.764L291.001 777.337Z" stroke="#596664" stroke-opacity="0.1" stroke-width="5" stroke-dasharray="30 30"/>
<path d="M1719 691.337C1720.76 701.505 1721.96 711.862 1722.56 722.375L1720.06 722.517C1720.35 727.642 1720.5 732.804 1720.5 738C1720.5 743.196 1720.35 748.358 1720.06 753.483L1722.56 753.624C1721.96 764.138 1720.76 774.495 1719 784.663L1716.54 784.236C1714.76 794.485 1712.4 804.541 1709.5 814.368L1711.9 815.076C1708.93 825.12 1705.39 834.928 1701.33 844.464L1699.03 843.484C1694.97 853.013 1690.38 862.268 1685.29 871.215L1687.46 872.451C1682.3 881.521 1676.63 890.276 1670.5 898.678L1668.48 897.204C1662.39 905.544 1655.83 913.534 1648.85 921.137L1650.69 922.829C1643.65 930.493 1636.18 937.768 1628.31 944.617L1626.67 942.731C1618.9 949.497 1610.74 955.842 1602.23 961.731L1603.65 963.786C1595.11 969.696 1586.22 975.149 1577.02 980.111L1575.83 977.911C1566.78 982.788 1557.43 987.186 1547.81 991.07L1548.75 993.388C1539.15 997.263 1529.28 1000.63 1519.18 1003.46L1518.51 1001.05C1508.65 1003.81 1498.56 1006.05 1488.28 1007.74L1488.69 1010.21C1478.51 1011.88 1468.14 1013.01 1457.62 1013.58L1457.49 1011.08C1452.36 1011.36 1447.2 1011.5 1442 1011.5C1436.8 1011.5 1431.64 1011.36 1426.51 1011.08L1426.38 1013.58C1415.86 1013.01 1405.49 1011.88 1395.31 1010.21L1395.72 1007.74C1385.44 1006.05 1375.35 1003.81 1365.49 1001.05L1364.82 1003.46C1354.72 1000.63 1344.85 997.263 1335.25 993.388L1336.19 991.07C1326.57 987.186 1317.22 982.788 1308.17 977.911L1306.98 980.111C1297.78 975.149 1288.89 969.696 1280.35 963.786L1281.77 961.731C1273.26 955.842 1265.1 949.497 1257.33 942.731L1255.69 944.617C1247.82 937.768 1240.35 930.493 1233.31 922.829L1235.15 921.137C1228.17 913.534 1221.61 905.544 1215.52 897.204L1213.5 898.678C1207.37 890.276 1201.7 881.521 1196.54 872.451L1198.71 871.215C1193.62 862.268 1189.03 853.013 1184.97 843.484L1182.67 844.464C1178.61 834.928 1175.07 825.12 1172.1 815.076L1174.5 814.368C1171.6 804.541 1169.24 794.485 1167.46 784.236L1165 784.663C1163.24 774.495 1162.04 764.138 1161.44 753.625L1163.94 753.483C1163.65 748.358 1163.5 743.196 1163.5 738C1163.5 732.804 1163.65 727.642 1163.94 722.517L1161.44 722.376C1162.04 711.862 1163.24 701.505 1165 691.337L1167.46 691.764C1169.24 681.515 1171.6 671.459 1174.5 661.632L1172.1 660.924C1175.07 650.88 1178.61 641.072 1182.67 631.536L1184.97 632.516C1189.03 622.987 1193.62 613.732 1198.71 604.785L1196.54 603.549C1201.7 594.479 1207.37 585.724 1213.5 577.322L1215.52 578.796C1221.61 570.456 1228.17 562.466 1235.15 554.863L1233.31 553.171C1240.35 545.507 1247.82 538.232 1255.69 531.383L1257.33 533.269C1265.1 526.503 1273.26 520.158 1281.77 514.269L1280.35 512.213C1288.89 506.304 1297.78 500.851 1306.98 495.889L1308.17 498.089C1317.22 493.212 1326.57 488.814 1336.19 484.93L1335.25 482.612C1344.85 478.737 1354.72 475.369 1364.82 472.542L1365.49 474.949C1375.35 472.188 1385.44 469.947 1395.72 468.259L1395.31 465.792C1405.49 464.12 1415.86 462.986 1426.38 462.419L1426.51 464.916C1431.64 464.64 1436.8 464.5 1442 464.5C1447.2 464.5 1452.36 464.64 1457.49 464.916L1457.62 462.419C1468.14 462.986 1478.51 464.12 1488.69 465.792L1488.28 468.259C1498.56 469.947 1508.65 472.188 1518.51 474.949L1519.18 472.542C1529.28 475.369 1539.15 478.737 1548.75 482.612L1547.81 484.93C1557.43 488.814 1566.78 493.212 1575.83 498.089L1577.02 495.889C1586.22 500.851 1595.11 506.304 1603.65 512.214L1602.23 514.269C1610.74 520.158 1618.9 526.503 1626.67 533.269L1628.31 531.383C1636.18 538.232 1643.65 545.507 1650.69 553.171L1648.85 554.863C1655.83 562.466 1662.39 570.456 1668.48 578.796L1670.5 577.322C1676.63 585.724 1682.3 594.479 1687.46 603.549L1685.29 604.785C1690.38 613.732 1694.97 622.987 1699.03 632.516L1701.33 631.536C1705.39 641.072 1708.93 650.88 1711.9 660.924L1709.5 661.632C1712.4 671.459 1714.76 681.515 1716.54 691.764L1719 691.337Z" stroke="#596664" stroke-opacity="0.1" stroke-width="5" stroke-dasharray="30 30"/>
<path d="M1719 -78.6626C1720.76 -68.4953 1721.96 -58.1385 1722.56 -47.6245L1720.06 -47.4827C1720.35 -42.3585 1720.5 -37.1963 1720.5 -32C1720.5 -26.8037 1720.35 -21.6416 1720.06 -16.5174L1722.56 -16.3755C1721.96 -5.8616 1720.76 4.49524 1719 14.6626L1716.54 14.2355C1714.76 24.4854 1712.4 34.5407 1709.5 44.3679L1711.9 45.0763C1708.93 55.12 1705.39 64.9276 1701.33 74.4635L1699.03 73.4837C1694.97 83.0127 1690.38 92.2684 1685.29 101.215L1687.46 102.451C1682.3 111.521 1676.63 120.276 1670.5 128.678L1668.48 127.204C1662.39 135.544 1655.83 143.534 1648.85 151.137L1650.69 152.829C1643.65 160.493 1636.18 167.768 1628.31 174.617L1626.67 172.731C1618.9 179.497 1610.74 185.842 1602.23 191.731L1603.65 193.786C1595.11 199.696 1586.22 205.149 1577.02 210.111L1575.83 207.911C1566.78 212.788 1557.43 217.186 1547.81 221.07L1548.75 223.388C1539.15 227.263 1529.28 230.631 1519.18 233.458L1518.51 231.051C1508.65 233.812 1498.56 236.053 1488.28 237.741L1488.69 240.208C1478.51 241.88 1468.14 243.014 1457.62 243.581L1457.49 241.084C1452.36 241.36 1447.2 241.5 1442 241.5C1436.8 241.5 1431.64 241.36 1426.51 241.084L1426.38 243.581C1415.86 243.014 1405.49 241.88 1395.31 240.208L1395.72 237.741C1385.44 236.053 1375.35 233.812 1365.49 231.051L1364.82 233.458C1354.72 230.631 1344.85 227.263 1335.25 223.388L1336.19 221.07C1326.57 217.186 1317.22 212.788 1308.17 207.911L1306.98 210.111C1297.78 205.149 1288.89 199.696 1280.35 193.786L1281.77 191.731C1273.26 185.842 1265.1 179.497 1257.33 172.731L1255.69 174.617C1247.82 167.768 1240.35 160.493 1233.31 152.829L1235.15 151.137C1228.17 143.534 1221.61 135.544 1215.52 127.204L1213.5 128.678C1207.37 120.276 1201.7 111.521 1196.54 102.451L1198.71 101.215C1193.62 92.2684 1189.03 83.0127 1184.97 73.4837L1182.67 74.4636C1178.61 64.9276 1175.07 55.1201 1172.1 45.0764L1174.5 44.3679C1171.6 34.5408 1169.24 24.4854 1167.46 14.2356L1165 14.6626C1163.24 4.4953 1162.04 -5.86151 1161.44 -16.3755L1163.94 -16.5173C1163.65 -21.6415 1163.5 -26.8037 1163.5 -32C1163.5 -37.1963 1163.65 -42.3584 1163.94 -47.4826L1161.44 -47.6245C1162.04 -58.1384 1163.24 -68.4952 1165 -78.6626L1167.46 -78.2355C1169.24 -88.4854 1171.6 -98.5407 1174.5 -108.368L1172.1 -109.076C1175.07 -119.12 1178.61 -128.928 1182.67 -138.464L1184.97 -137.484C1189.03 -147.013 1193.62 -156.268 1198.71 -165.215L1196.54 -166.451C1201.7 -175.521 1207.37 -184.276 1213.5 -192.678L1215.52 -191.204C1221.61 -199.544 1228.17 -207.534 1235.15 -215.137L1233.31 -216.829C1240.35 -224.493 1247.82 -231.768 1255.69 -238.617L1257.33 -236.731C1265.1 -243.497 1273.26 -249.842 1281.77 -255.731L1280.35 -257.787C1288.89 -263.696 1297.78 -269.149 1306.98 -274.111L1308.17 -271.911C1317.22 -276.788 1326.57 -281.186 1336.19 -285.07L1335.25 -287.388C1344.85 -291.263 1354.72 -294.631 1364.82 -297.458L1365.49 -295.051C1375.35 -297.812 1385.44 -300.053 1395.72 -301.741L1395.31 -304.208C1405.49 -305.88 1415.86 -307.014 1426.38 -307.581L1426.51 -305.084C1431.64 -305.36 1436.8 -305.5 1442 -305.5C1447.2 -305.5 1452.36 -305.36 1457.49 -305.084L1457.62 -307.581C1468.14 -307.014 1478.51 -305.88 1488.69 -304.208L1488.28 -301.741C1498.56 -300.053 1508.65 -297.812 1518.51 -295.051L1519.18 -297.458C1529.28 -294.631 1539.15 -291.263 1548.75 -287.388L1547.81 -285.07C1557.43 -281.186 1566.78 -276.788 1575.83 -271.911L1577.02 -274.111C1586.22 -269.149 1595.11 -263.696 1603.65 -257.786L1602.23 -255.731C1610.74 -249.842 1618.9 -243.497 1626.67 -236.731L1628.31 -238.617C1636.18 -231.768 1643.65 -224.493 1650.69 -216.829L1648.85 -215.137C1655.83 -207.534 1662.39 -199.544 1668.48 -191.204L1670.5 -192.678C1676.63 -184.276 1682.3 -175.521 1687.46 -166.451L1685.29 -165.215C1690.38 -156.268 1694.97 -147.013 1699.03 -137.484L1701.33 -138.464C1705.39 -128.928 1708.93 -119.12 1711.9 -109.076L1709.5 -108.368C1712.4 -98.5408 1714.76 -88.4855 1716.54 -78.2356L1719 -78.6626Z" stroke="#596664" stroke-opacity="0.1" stroke-width="5" stroke-dasharray="30 30"/>
<path d="M1763 734.337C1764.76 744.505 1765.96 754.862 1766.56 765.375L1764.06 765.517C1764.35 770.642 1764.5 775.804 1764.5 781C1764.5 786.196 1764.35 791.358 1764.06 796.483L1766.56 796.624C1765.96 807.138 1764.76 817.495 1763 827.663L1760.54 827.236C1758.76 837.485 1756.4 847.541 1753.5 857.368L1755.9 858.076C1752.93 868.12 1749.39 877.928 1745.33 887.464L1743.03 886.484C1738.97 896.013 1734.38 905.268 1729.29 914.215L1731.46 915.451C1726.3 924.521 1720.63 933.276 1714.5 941.678L1712.48 940.204C1706.39 948.544 1699.83 956.534 1692.85 964.137L1694.69 965.829C1687.65 973.493 1680.18 980.768 1672.31 987.617L1670.67 985.731C1662.9 992.497 1654.74 998.842 1646.23 1004.73L1647.65 1006.79C1639.11 1012.7 1630.22 1018.15 1621.02 1023.11L1619.83 1020.91C1610.78 1025.79 1601.43 1030.19 1591.81 1034.07L1592.75 1036.39C1583.15 1040.26 1573.28 1043.63 1563.18 1046.46L1562.51 1044.05C1552.65 1046.81 1542.56 1049.05 1532.28 1050.74L1532.69 1053.21C1522.51 1054.88 1512.14 1056.01 1501.62 1056.58L1501.49 1054.08C1496.36 1054.36 1491.2 1054.5 1486 1054.5C1480.8 1054.5 1475.64 1054.36 1470.51 1054.08L1470.38 1056.58C1459.86 1056.01 1449.49 1054.88 1439.31 1053.21L1439.72 1050.74C1429.44 1049.05 1419.35 1046.81 1409.49 1044.05L1408.82 1046.46C1398.72 1043.63 1388.85 1040.26 1379.25 1036.39L1380.19 1034.07C1370.57 1030.19 1361.22 1025.79 1352.17 1020.91L1350.98 1023.11C1341.78 1018.15 1332.89 1012.7 1324.35 1006.79L1325.77 1004.73C1317.26 998.842 1309.1 992.497 1301.33 985.731L1299.69 987.617C1291.82 980.768 1284.35 973.493 1277.31 965.829L1279.15 964.137C1272.17 956.534 1265.61 948.544 1259.52 940.204L1257.5 941.678C1251.37 933.276 1245.7 924.521 1240.54 915.451L1242.71 914.215C1237.62 905.268 1233.03 896.013 1228.97 886.484L1226.67 887.464C1222.61 877.928 1219.07 868.12 1216.1 858.076L1218.5 857.368C1215.6 847.541 1213.24 837.485 1211.46 827.236L1209 827.663C1207.24 817.495 1206.04 807.138 1205.44 796.625L1207.94 796.483C1207.65 791.358 1207.5 786.196 1207.5 781C1207.5 775.804 1207.65 770.642 1207.94 765.517L1205.44 765.376C1206.04 754.862 1207.24 744.505 1209 734.337L1211.46 734.764C1213.24 724.515 1215.6 714.459 1218.5 704.632L1216.1 703.924C1219.07 693.88 1222.61 684.072 1226.67 674.536L1228.97 675.516C1233.03 665.987 1237.62 656.732 1242.71 647.785L1240.54 646.549C1245.7 637.479 1251.37 628.724 1257.5 620.322L1259.52 621.796C1265.61 613.456 1272.17 605.466 1279.15 597.863L1277.31 596.171C1284.35 588.507 1291.82 581.232 1299.69 574.383L1301.33 576.269C1309.1 569.503 1317.26 563.158 1325.77 557.269L1324.35 555.213C1332.89 549.304 1341.78 543.851 1350.98 538.889L1352.17 541.089C1361.22 536.212 1370.57 531.814 1380.19 527.93L1379.25 525.612C1388.85 521.737 1398.72 518.369 1408.82 515.542L1409.49 517.949C1419.35 515.188 1429.44 512.947 1439.72 511.259L1439.31 508.792C1449.49 507.12 1459.86 505.986 1470.38 505.419L1470.51 507.916C1475.64 507.64 1480.8 507.5 1486 507.5C1491.2 507.5 1496.36 507.64 1501.49 507.916L1501.62 505.419C1512.14 505.986 1522.51 507.12 1532.69 508.792L1532.28 511.259C1542.56 512.947 1552.65 515.188 1562.51 517.949L1563.18 515.542C1573.28 518.369 1583.15 521.737 1592.75 525.612L1591.81 527.93C1601.43 531.814 1610.78 536.212 1619.83 541.089L1621.02 538.889C1630.22 543.851 1639.11 549.304 1647.65 555.214L1646.23 557.269C1654.74 563.158 1662.9 569.503 1670.67 576.269L1672.31 574.383C1680.18 581.232 1687.65 588.507 1694.69 596.171L1692.85 597.863C1699.83 605.466 1706.39 613.456 1712.48 621.796L1714.5 620.322C1720.63 628.724 1726.3 637.479 1731.46 646.549L1729.29 647.785C1734.38 656.732 1738.97 665.987 1743.03 675.516L1745.33 674.536C1749.39 684.072 1752.93 693.88 1755.9 703.924L1753.5 704.632C1756.4 714.459 1758.76 724.515 1760.54 734.764L1763 734.337Z" stroke="#596664" stroke-opacity="0.1" stroke-width="5" stroke-dasharray="30 30"/>
<path d="M1719 351.337C1720.76 361.505 1721.96 371.862 1722.56 382.375L1720.06 382.517C1720.35 387.642 1720.5 392.804 1720.5 398C1720.5 403.196 1720.35 408.358 1720.06 413.483L1722.56 413.624C1721.96 424.138 1720.76 434.495 1719 444.663L1716.54 444.236C1714.76 454.485 1712.4 464.541 1709.5 474.368L1711.9 475.076C1708.93 485.12 1705.39 494.928 1701.33 504.464L1699.03 503.484C1694.97 513.013 1690.38 522.268 1685.29 531.215L1687.46 532.451C1682.3 541.521 1676.63 550.276 1670.5 558.678L1668.48 557.204C1662.39 565.544 1655.83 573.534 1648.85 581.137L1650.69 582.829C1643.65 590.493 1636.18 597.768 1628.31 604.617L1626.67 602.731C1618.9 609.497 1610.74 615.842 1602.23 621.731L1603.65 623.786C1595.11 629.696 1586.22 635.149 1577.02 640.111L1575.83 637.911C1566.78 642.788 1557.43 647.186 1547.81 651.07L1548.75 653.388C1539.15 657.263 1529.28 660.631 1519.18 663.458L1518.51 661.051C1508.65 663.812 1498.56 666.053 1488.28 667.741L1488.69 670.208C1478.51 671.88 1468.14 673.014 1457.62 673.581L1457.49 671.084C1452.36 671.36 1447.2 671.5 1442 671.5C1436.8 671.5 1431.64 671.36 1426.51 671.084L1426.38 673.581C1415.86 673.014 1405.49 671.88 1395.31 670.208L1395.72 667.741C1385.44 666.053 1375.35 663.812 1365.49 661.051L1364.82 663.458C1354.72 660.631 1344.85 657.263 1335.25 653.388L1336.19 651.07C1326.57 647.186 1317.22 642.788 1308.17 637.911L1306.98 640.111C1297.78 635.149 1288.89 629.696 1280.35 623.786L1281.77 621.731C1273.26 615.842 1265.1 609.497 1257.33 602.731L1255.69 604.617C1247.82 597.768 1240.35 590.493 1233.31 582.829L1235.15 581.137C1228.17 573.534 1221.61 565.544 1215.52 557.204L1213.5 558.678C1207.37 550.276 1201.7 541.521 1196.54 532.451L1198.71 531.215C1193.62 522.268 1189.03 513.013 1184.97 503.484L1182.67 504.464C1178.61 494.928 1175.07 485.12 1172.1 475.076L1174.5 474.368C1171.6 464.541 1169.24 454.485 1167.46 444.236L1165 444.663C1163.24 434.495 1162.04 424.138 1161.44 413.625L1163.94 413.483C1163.65 408.358 1163.5 403.196 1163.5 398C1163.5 392.804 1163.65 387.642 1163.94 382.517L1161.44 382.376C1162.04 371.862 1163.24 361.505 1165 351.337L1167.46 351.764C1169.24 341.515 1171.6 331.459 1174.5 321.632L1172.1 320.924C1175.07 310.88 1178.61 301.072 1182.67 291.536L1184.97 292.516C1189.03 282.987 1193.62 273.732 1198.71 264.785L1196.54 263.549C1201.7 254.479 1207.37 245.724 1213.5 237.322L1215.52 238.796C1221.61 230.456 1228.17 222.466 1235.15 214.863L1233.31 213.171C1240.35 205.507 1247.82 198.232 1255.69 191.383L1257.33 193.269C1265.1 186.503 1273.26 180.158 1281.77 174.269L1280.35 172.213C1288.89 166.304 1297.78 160.851 1306.98 155.889L1308.17 158.089C1317.22 153.212 1326.57 148.814 1336.19 144.93L1335.25 142.612C1344.85 138.737 1354.72 135.369 1364.82 132.542L1365.49 134.949C1375.35 132.188 1385.44 129.947 1395.72 128.259L1395.31 125.792C1405.49 124.12 1415.86 122.986 1426.38 122.419L1426.51 124.916C1431.64 124.64 1436.8 124.5 1442 124.5C1447.2 124.5 1452.36 124.64 1457.49 124.916L1457.62 122.419C1468.14 122.986 1478.51 124.12 1488.69 125.792L1488.28 128.259C1498.56 129.947 1508.65 132.188 1518.51 134.949L1519.18 132.542C1529.28 135.369 1539.15 138.737 1548.75 142.612L1547.81 144.93C1557.43 148.814 1566.78 153.212 1575.83 158.089L1577.02 155.889C1586.22 160.851 1595.11 166.304 1603.65 172.214L1602.23 174.269C1610.74 180.158 1618.9 186.503 1626.67 193.269L1628.31 191.383C1636.18 198.232 1643.65 205.507 1650.69 213.171L1648.85 214.863C1655.83 222.466 1662.39 230.456 1668.48 238.796L1670.5 237.322C1676.63 245.724 1682.3 254.479 1687.46 263.549L1685.29 264.785C1690.38 273.732 1694.97 282.987 1699.03 292.516L1701.33 291.536C1705.39 301.072 1708.93 310.88 1711.9 320.924L1709.5 321.632C1712.4 331.459 1714.76 341.515 1716.54 351.764L1719 351.337Z" stroke="#596664" stroke-opacity="0.1" stroke-width="5" stroke-dasharray="30 30"/>
</g>
</svg>
